<?xml version="1.0" standalone="no"?>
<!DOCTYPE svg PUBLIC "-//W3C//DTD SVG 20010904//EN"
 "http://www.w3.org/TR/2001/REC-SVG-20010904/DTD/svg10.dtd">
<svg version="1.0" xmlns="http://www.w3.org/2000/svg"
 width="270.000000pt" height="238.000000pt" viewBox="0 0 270.000000 238.000000"
 preserveAspectRatio="xMidYMid meet">

<g transform="translate(0.000000,238.000000) scale(0.100000,-0.100000)"
fill="#000000" stroke="none">
<path d="M1950 1990 l0 -191 -31 36 c-22 24 -48 40 -86 51 -64 19 -107 13
-156 -21 l-36 -24 -3 22 c-3 21 -8 22 -150 25 -143 2 -148 2 -148 -18 0 -20 0
-20 -37 0 -85 45 -177 34 -247 -30 l-43 -39 -21 29 c-60 80 -177 89 -256 19
l-33 -28 -28 29 c-31 32 -110 56 -153 45 -15 -3 -44 -17 -64 -31 l-38 -24 0
25 c0 26 -1 26 -72 23 l-73 -3 -3 -217 -2 -218 74 0 75 0 3 146 c3 139 4 147
27 165 32 26 67 24 96 -6 24 -23 25 -29 25 -165 l0 -140 75 0 75 0 0 139 c0
125 2 141 21 165 25 31 66 34 100 7 23 -18 24 -26 27 -165 l3 -146 75 0 74 0
0 37 0 37 28 -27 c73 -70 203 -77 270 -15 l22 21 0 -26 0 -27 150 0 150 0 0
137 c0 135 0 137 27 165 16 17 37 28 54 28 75 0 89 -31 89 -200 l0 -130 145 0
145 0 0 136 0 136 29 29 c38 37 82 39 116 4 24 -23 25 -29 25 -165 l0 -140 75
0 75 0 0 155 c0 216 -18 253 -139 285 -54 14 -98 7 -145 -25 l-36 -24 0 169 0
170 -75 0 -75 0 0 -190z m-639 -249 c40 -40 41 -106 3 -145 -41 -41 -106 -39
-146 5 -62 66 -18 169 72 169 33 0 48 -6 71 -29z"/>
<path d="M266 1395 c-57 -20 -87 -45 -121 -100 l-30 -48 0 -422 0 -422 30 -49
c19 -30 49 -60 79 -79 l49 -30 1066 0 1066 0 40 22 c51 27 90 68 109 115 14
32 16 99 16 445 0 375 -2 411 -19 449 -24 53 -91 109 -146 123 -31 8 -354 11
-1072 11 -856 -1 -1035 -3 -1067 -15z m1709 -107 c29 -13 55 -55 55 -87 0 -11
-12 -33 -26 -50 -72 -86 -202 16 -138 107 27 39 67 50 109 30z m-1278 -259
c15 -5 40 -22 54 -35 l27 -25 44 31 c75 53 161 50 228 -7 l30 -25 0 31 0 31
75 0 75 0 1 -122 c0 -155 11 -190 61 -202 47 -12 85 4 98 40 6 14 10 84 10
155 l0 129 75 0 75 0 0 -31 0 -30 33 25 c45 34 116 50 185 41 31 -4 99 -6 150
-5 l92 2 0 -57 0 -56 30 35 c65 73 163 101 265 75 64 -16 70 -28 44 -82 l-22
-45 -58 5 c-54 5 -60 4 -88 -25 -25 -24 -31 -39 -31 -72 0 -88 71 -130 161
-95 12 4 21 -7 38 -46 12 -29 18 -56 14 -59 -35 -31 -171 -40 -231 -15 -20 9
-56 35 -79 58 l-43 41 0 -52 0 -52 -75 0 c-67 0 -75 2 -75 19 0 17 -3 17 -47
-6 -42 -21 -59 -24 -133 -21 -65 2 -95 8 -128 26 l-44 23 -36 -23 c-29 -18
-55 -23 -129 -26 -112 -5 -170 9 -212 50 l-31 30 0 -36 0 -36 -80 0 -80 0 0
143 c0 157 -4 168 -62 182 -21 5 -33 1 -52 -19 -25 -25 -26 -28 -26 -166 l0
-140 -75 0 -75 0 0 124 c0 67 -5 137 -11 154 -20 59 -107 64 -129 7 -6 -15
-10 -85 -10 -156 l0 -129 -75 0 -75 0 0 220 0 220 75 0 c68 0 75 -2 75 -20 0
-22 15 -27 26 -9 20 33 117 49 171 28z"/>
<path d="M1845 929 c-6 -17 -12 -19 -33 -13 -15 4 -47 8 -72 8 -37 1 -45 -2
-45 -18 0 -13 16 -24 63 -41 35 -13 72 -31 83 -40 19 -18 19 -17 19 53 0 74
-4 87 -15 51z"/>
<path d="M1550 774 c1 -50 3 -64 10 -52 9 15 14 15 53 -8 48 -27 89 -31 107
-9 17 21 5 33 -58 61 -32 14 -69 37 -84 51 l-28 27 0 -70z"/>
</g>
</svg>
